<?xml version="1.0" standalone="no"?>
<!DOCTYPE svg PUBLIC "-//W3C//DTD SVG 20010904//EN"
 "http://www.w3.org/TR/2001/REC-SVG-20010904/DTD/svg10.dtd">
<svg version="1.0" xmlns="http://www.w3.org/2000/svg"
 width="3418.000000pt" height="3418.000000pt" viewBox="0 0 3418.000000 3418.000000"
 preserveAspectRatio="xMidYMid meet">
<metadata>
Created by potrace 1.11, written by Peter Selinger 2001-2013
</metadata>
<g transform="translate(0.000000,3418.000000) scale(0.100000,-0.100000)"
fill="#000000" stroke="none">
<path d="M16575 21714 c-49 -17 -92 -52 -220 -179 -81 -79 -133 -142 -187
-225 -90 -137 -298 -503 -298 -524 0 -21 20 -31 57 -27 18 1 33 0 33 -3 0 -6
-150 -308 -157 -316 -7 -7 -23 23 -23 44 0 10 18 38 40 62 22 24 40 49 41 56
0 7 2 21 4 31 4 20 -31 48 -51 40 -8 -3 -27 -33 -43 -67 -34 -71 -103 -277
-96 -284 3 -3 13 2 23 11 22 21 41 22 48 3 7 -18 -41 -123 -77 -168 -19 -24
-31 -53 -35 -82 -5 -44 -13 -66 -96 -266 -61 -147 -66 -153 -90 -102 -14 29
-28 33 -39 11 -71 -142 -250 -676 -294 -879 -2 -8 -12 -55 -24 -105 -21 -94
-47 -219 -55 -269 -3 -16 -10 -52 -15 -80 -6 -28 -13 -62 -15 -76 -3 -14 -16
-83 -30 -155 -32 -168 -32 -166 -46 -281 -13 -102 -26 -139 -66 -187 -13 -16
-24 -35 -24 -43 0 -8 -5 -14 -11 -14 -5 0 -31 -16 -56 -35 -25 -19 -57 -35
-70 -35 -42 0 -90 -29 -164 -102 -40 -38 -89 -81 -111 -95 -37 -25 -51 -53
-25 -53 8 0 51 28 97 61 76 56 85 60 96 44 7 -9 10 -22 8 -28 -8 -19 -166
-114 -204 -124 -38 -10 -55 -48 -26 -59 34 -13 52 -2 212 121 63 48 109 99
133 146 38 74 151 177 183 167 8 -3 11 -48 10 -154 0 -87 5 -181 13 -226 43
-237 177 -476 317 -564 21 -13 68 -36 105 -51 56 -22 83 -27 153 -27 101 1
153 17 259 82 150 91 257 190 417 387 111 137 121 148 126 138 3 -4 5 -51 7
-102 1 -52 3 -106 6 -120 2 -15 7 -46 10 -71 16 -116 67 -239 139 -334 134
-177 251 -254 401 -262 156 -8 255 71 280 224 5 34 3 47 -11 63 -9 10 -20 19
-24 19 -3 0 -33 -18 -66 -39 -64 -42 -113 -59 -156 -55 -30 3 -95 31 -118 52
-90 79 -133 151 -172 289 -31 109 -32 350 -2 497 2 12 7 37 10 56 11 70 64
210 106 281 31 53 92 122 226 257 104 105 182 192 182 203 0 10 -7 22 -17 27
-27 16 -8 42 30 42 27 0 37 6 48 27 8 16 55 69 105 119 62 61 100 109 118 147
14 30 34 58 45 62 17 5 71 59 71 71 0 3 24 43 54 87 64 98 97 162 141 277 40
102 104 230 115 230 4 0 6 -9 3 -20 -6 -24 -4 -24 45 -4 39 15 70 58 52 69 -6
4 -15 3 -21 -1 -13 -8 -13 -8 26 68 22 43 35 59 56 63 33 8 36 15 33 85 -2 43
4 72 28 133 17 43 34 80 39 83 5 2 4 17 -2 31 -9 24 -6 30 20 50 27 22 30 28
30 86 0 70 10 105 49 161 l26 38 -23 19 c-21 17 -23 25 -18 64 4 25 18 63 33
86 14 23 27 54 28 70 1 15 9 36 18 46 34 37 42 145 17 236 -17 65 -108 137
-214 169 -55 17 -180 34 -208 28 -36 -7 -180 -115 -266 -200 -64 -63 -261
-341 -261 -368 0 -7 -4 -12 -8 -12 -4 0 -13 -12 -19 -27 -7 -16 -26 -53 -43
-83 -82 -143 -91 -162 -85 -181 5 -16 12 -18 47 -12 l41 6 -78 -149 c-43 -82
-79 -151 -80 -152 -2 -2 -8 6 -15 17 -13 26 0 56 41 89 33 27 40 80 13 103
-23 19 -45 2 -76 -62 -26 -52 -39 -88 -79 -229 -18 -65 -18 -65 1 -40 11 14
20 28 20 32 0 14 43 20 50 8 9 -14 -37 -114 -77 -168 -14 -18 -27 -48 -30 -65
-8 -57 -51 -172 -99 -267 l-47 -94 -21 26 c-29 37 -51 22 -67 -44 -6 -29 -32
-100 -57 -158 -92 -216 -200 -604 -237 -850 -4 -24 -8 -47 -11 -51 -2 -4 -6
-28 -9 -55 -20 -168 -36 -204 -179 -394 -189 -251 -378 -447 -503 -521 -161
-97 -291 -98 -370 -5 -59 70 -123 248 -140 389 -9 83 -10 326 0 407 16 141 60
360 87 437 34 96 70 144 230 303 174 172 270 284 270 314 0 11 -8 28 -17 38
-22 24 -6 36 46 36 19 0 37 4 38 9 14 42 47 84 93 121 134 106 149 121 181
192 18 38 41 72 50 75 10 4 30 20 44 38 75 94 127 186 165 290 20 56 66 158
102 227 59 114 68 127 106 144 37 17 44 25 41 54 0 4 -8 6 -18 5 -16 -2 -14 8
16 68 26 54 41 74 64 82 36 14 49 54 42 129 -5 51 -3 56 43 118 37 51 48 74
48 105 1 25 7 45 19 55 19 16 40 86 58 190 14 87 13 82 27 107 10 18 8 26 -14
52 -22 27 -24 35 -16 63 6 18 13 55 16 82 3 31 13 56 26 68 12 12 20 31 20 52
0 23 7 38 21 47 l21 14 -21 24 c-28 32 -26 57 5 94 26 30 26 38 9 127 -14 68
-48 105 -145 157 -128 68 -220 90 -285 67z m177 -266 c9 -26 -53 -323 -106
-509 -147 -521 -353 -976 -614 -1354 -42 -60 -80 -114 -85 -120 -4 -5 -68 -89
-140 -186 -137 -181 -200 -260 -292 -361 -59 -66 -71 -64 -66 11 3 50 3 51
116 326 87 213 130 334 180 510 18 66 66 191 104 278 39 87 71 161 71 164 0 3
6 19 14 36 8 18 27 61 42 97 40 97 80 175 144 275 31 50 92 153 134 230 102
183 146 253 225 350 36 44 70 85 76 91 5 6 43 48 84 93 70 76 104 97 113 69z
m-434 -125 c-56 -109 -104 -185 -211 -336 -80 -111 -92 -125 -99 -106 -6 16
-3 28 9 42 16 17 16 21 3 29 -13 9 -5 21 46 72 34 34 94 111 134 171 70 108
119 169 128 161 2 -3 -2 -17 -10 -33z m514 -89 c-2 -60 -5 -117 -8 -126 -6
-21 -24 -149 -28 -200 -1 -21 -11 -47 -21 -57 -9 -11 -17 -33 -17 -48 0 -15
-9 -45 -19 -66 -11 -20 -21 -64 -24 -97 -3 -55 -23 -109 -70 -190 -12 -21 -12
-26 0 -33 23 -12 18 -23 -21 -46 -25 -15 -34 -26 -30 -37 3 -9 -3 -28 -14 -43
-10 -15 -24 -59 -30 -97 -7 -42 -20 -83 -35 -104 -13 -19 -56 -102 -95 -184
-80 -168 -119 -231 -200 -331 -32 -38 -88 -119 -124 -179 -122 -200 -200 -300
-381 -482 -60 -61 -149 -152 -197 -201 -48 -50 -96 -93 -107 -96 -12 -3 -21
-3 -21 -1 0 14 59 92 131 174 132 148 178 206 300 376 62 88 136 186 164 219
28 33 66 87 85 120 18 33 79 139 135 235 161 276 264 485 326 660 12 36 26 70
30 76 19 25 79 149 79 164 0 32 22 91 43 117 13 15 24 39 25 53 1 14 17 73 37
132 19 59 35 126 35 148 0 22 6 51 14 63 20 31 26 79 15 128 -11 47 -5 73 13
67 10 -4 12 -33 10 -114z m1177 -627 c6 -8 9 -16 7 -18 -2 -2 -6 -26 -10 -54
-16 -128 -92 -463 -138 -605 -62 -193 -217 -539 -338 -756 -122 -217 -313
-498 -412 -604 -23 -25 -193 -219 -297 -340 -66 -76 -101 -110 -112 -110 -5 0
-9 2 -9 4 0 18 69 185 123 296 76 160 133 307 217 564 73 223 217 574 301 736
33 63 87 151 119 196 32 44 82 125 110 180 61 116 114 193 211 305 59 69 203
219 209 219 4 0 13 -6 19 -13z m-409 -104 c-1 -26 -207 -344 -244 -376 -20
-18 -21 -18 -39 4 -17 22 -17 23 13 54 122 126 188 210 204 262 11 36 67 83
66 56z m498 -38 c0 -39 -2 -43 -13 -28 -7 10 -15 30 -19 46 -5 22 -3 27 13 27
17 0 20 -6 19 -45z m-3 -179 c-4 -39 -8 -96 -7 -127 0 -49 -3 -58 -23 -69 -36
-19 -45 -45 -60 -172 -3 -21 -7 -57 -10 -80 -3 -24 -19 -65 -35 -91 -35 -56
-36 -63 -13 -71 15 -6 13 -11 -15 -32 -18 -14 -32 -31 -32 -38 0 -7 -13 -32
-29 -57 -20 -30 -31 -63 -36 -102 -7 -69 -11 -81 -43 -127 -13 -19 -43 -76
-66 -125 -74 -157 -132 -236 -216 -294 -59 -41 -117 -119 -158 -216 -55 -129
-100 -193 -228 -320 -144 -144 -370 -357 -389 -367 -37 -21 6 69 50 104 52 41
159 155 248 266 53 64 114 137 137 162 80 88 128 156 179 254 28 54 81 144
118 198 175 257 258 406 344 619 23 57 63 149 89 204 26 55 71 165 100 245 42
115 53 160 56 219 4 72 17 107 36 94 7 -4 8 -31 3 -77z m-1487 -168 c-6 -18
-23 -53 -36 -78 -63 -115 -134 -240 -138 -240 -5 0 51 122 81 177 83 149 97
173 100 173 2 0 -1 -15 -7 -32z m-1143 -498 c4 -6 -12 -38 -34 -72 -23 -33
-44 -72 -48 -87 -3 -14 -18 -57 -34 -96 -30 -76 -71 -204 -169 -525 -34 -113
-68 -211 -75 -218 -10 -11 -11 -7 -5 25 29 146 186 648 262 838 22 55 44 110
49 123 9 23 43 30 54 12z m858 -59 c16 -6 7 -18 -58 -81 -42 -41 -81 -77 -86
-79 -11 -3 18 46 73 127 29 42 38 47 71 33z m462 -660 c-5 -23 -50 -71 -67
-71 -3 0 -5 8 -3 18 2 9 4 19 4 22 1 3 10 20 21 37 24 40 55 36 45 -6z m790
-31 c-17 -33 -59 -44 -48 -12 10 28 24 42 44 42 18 0 19 -2 4 -30z m-895 -193
c-50 -135 -141 -423 -191 -606 -21 -80 -44 -150 -50 -155 -15 -16 -8 24 36
189 20 77 38 147 40 155 16 68 114 369 152 465 37 96 34 91 44 73 6 -11 -3
-47 -31 -121z m-1710 -862 c0 -14 -4 -25 -10 -25 -5 0 -10 11 -10 25 0 14 5
25 10 25 6 0 10 -11 10 -25z"/>
<path d="M22580 20516 c-3 -2 -21 -7 -40 -10 -203 -31 -416 -213 -572 -486
-86 -150 -247 -522 -450 -1040 -134 -342 -226 -561 -246 -584 -43 -49 -278
-139 -537 -206 -208 -53 -300 -63 -407 -42 -25 5 -52 6 -58 2 -19 -12 23 -48
66 -56 56 -10 16 -27 -45 -19 -39 5 -49 3 -54 -10 -9 -23 33 -36 128 -38 82
-2 102 -15 45 -30 -24 -6 -30 -12 -25 -27 6 -20 -7 -32 -40 -37 -29 -5 -38
-18 -20 -33 16 -13 122 -15 215 -4 159 18 421 86 538 140 40 19 57 11 37 -19
-7 -12 -45 -89 -83 -172 -182 -397 -340 -715 -393 -791 -42 -62 -128 -135
-203 -173 -113 -58 -191 -120 -282 -226 -124 -145 -185 -295 -188 -460 -1 -93
0 -100 22 -110 22 -12 22 -12 3 -29 -10 -10 -21 -26 -24 -37 -10 -38 138 -222
189 -235 13 -3 40 -3 59 0 38 7 37 6 37 95 0 29 5 70 10 90 14 51 109 216 158
275 45 54 55 82 47 126 -6 26 -3 29 24 35 31 7 74 45 147 131 95 111 229 158
454 156 262 -2 485 -90 998 -397 310 -184 787 -453 820 -461 19 -4 62 -8 95
-9 54 0 60 -2 63 -22 5 -33 134 -81 262 -97 25 -3 63 -8 85 -11 97 -12 137
-16 240 -21 88 -5 117 -3 147 10 54 23 54 34 0 25 -61 -10 -224 -4 -282 9 -25
6 -61 14 -80 17 -54 9 -71 16 -65 26 9 14 76 11 152 -7 77 -18 151 -15 287 10
92 17 168 45 181 66 13 21 0 19 -90 -12 -97 -33 -195 -42 -217 -20 -31 31 53
57 111 35 34 -13 66 -5 93 24 l23 26 -35 -8 c-19 -5 -48 -7 -65 -6 -16 1 -73
4 -125 6 -167 6 -312 15 -318 19 -4 2 -23 7 -44 10 -48 7 -122 33 -178 61 -25
12 -92 39 -150 60 -122 44 -185 74 -227 109 -16 13 -46 28 -67 31 -20 4 -58
23 -84 41 -52 38 -51 37 -107 53 -22 6 -69 33 -105 61 -157 122 -310 209 -367
210 -36 0 -66 16 -111 58 -65 62 -166 124 -292 179 -242 107 -358 135 -569
139 -84 1 -155 5 -158 8 -3 2 11 28 29 58 32 50 78 133 190 343 51 96 271 539
305 615 12 25 39 90 62 145 24 55 48 114 55 130 8 17 19 46 25 66 14 45 20 50
156 140 735 482 1258 1119 1323 1609 11 82 7 219 -6 267 -31 105 -124 190
-237 216 -59 14 -226 23 -235 13z m-196 -178 c-4 -7 -20 -26 -35 -43 -23 -25
-68 -78 -119 -142 -32 -40 -98 -151 -138 -233 -25 -52 -59 -116 -74 -142 -16
-25 -46 -95 -67 -155 -21 -59 -63 -171 -93 -248 -30 -77 -58 -148 -61 -157 -7
-19 -27 -25 -27 -7 0 25 85 266 139 394 60 143 245 490 278 523 7 7 13 17 13
22 0 17 101 136 142 167 48 36 52 38 42 21z m328 -19 c60 -27 83 -108 67 -234
-11 -93 -17 -118 -48 -207 -110 -309 -358 -651 -666 -917 -107 -92 -288 -231
-302 -231 -6 0 11 54 38 120 26 66 68 177 92 247 132 378 256 667 355 828 17
28 33 66 37 85 4 19 19 51 33 71 131 176 148 192 232 222 79 28 126 33 162 16z
m-1492 -2058 c0 -45 -348 -169 -545 -195 -22 -2 -64 -8 -92 -12 -62 -8 -75 11
-15 22 40 7 218 43 242 49 153 37 268 77 358 124 42 23 52 25 52 12z m117
-213 c-47 -99 -107 -202 -107 -185 0 11 59 156 81 200 26 50 69 110 76 104 2
-3 -20 -56 -50 -119z"/>
<path d="M7325 20375 c-5 -2 -41 -12 -80 -24 -52 -15 -93 -37 -159 -86 -204
-150 -244 -187 -276 -249 -9 -18 -37 -41 -73 -60 -96 -52 -140 -89 -170 -144
-16 -29 -27 -57 -25 -62 2 -5 24 10 50 33 148 135 285 249 321 268 39 21 13
-12 -55 -72 -40 -35 -78 -68 -84 -74 -6 -5 -58 -53 -115 -105 -262 -240 -865
-859 -1119 -1150 -46 -52 -86 -97 -90 -100 -3 -3 -55 -63 -114 -135 -186 -222
-186 -222 -456 -230 -96 -3 -256 -7 -355 -10 -290 -9 -346 -20 -379 -76 -37
-63 13 -210 78 -227 33 -9 148 -8 286 2 73 5 241 9 318 7 34 -1 36 -24 8 -70
-14 -22 -26 -55 -26 -73 0 -24 -11 -47 -41 -83 -35 -42 -117 -163 -154 -227
-71 -122 -148 -242 -157 -246 -5 -2 -8 -9 -8 -15 0 -6 -28 -44 -61 -85 -37
-45 -67 -94 -76 -121 -7 -25 -31 -72 -53 -105 -21 -34 -55 -97 -75 -141 -50
-109 -64 -134 -97 -177 -16 -20 -35 -63 -44 -95 -23 -90 -89 -267 -92 -249 -4
21 -18 20 -27 -1 -31 -79 -78 -283 -92 -395 -22 -181 0 -418 39 -426 17 -3 21
14 33 129 3 31 7 66 10 77 2 11 6 37 9 58 4 22 8 46 11 54 2 8 7 38 10 65 18
130 26 166 48 225 26 70 59 124 107 175 41 42 48 64 36 106 -6 20 -1 37 17 66
41 64 83 154 103 217 16 52 24 62 71 92 36 23 53 41 55 56 0 13 2 29 2 36 1 7
16 26 33 42 66 61 95 122 129 263 7 30 15 33 45 15 19 -12 25 -8 65 37 24 27
62 84 84 126 24 47 65 103 106 145 74 77 88 103 74 138 -11 29 8 109 24 103 6
-2 10 -20 8 -41 -5 -67 27 -38 120 109 103 162 143 206 215 242 48 23 60 25
140 19 83 -5 196 -8 255 -7 21 1 25 5 21 21 -5 17 0 20 26 20 24 0 31 -4 31
-20 0 -11 3 -20 8 -20 4 0 158 -3 342 -5 184 -3 353 -7 374 -9 49 -7 36 10
-19 23 -37 9 -34 10 30 8 l70 -2 -2 46 c-1 40 2 49 23 60 29 15 48 1 59 -43 6
-22 4 -28 -10 -28 -9 0 -27 -8 -39 -17 -24 -18 -24 -18 -5 -45 33 -46 30 -65
-66 -403 -7 -27 -16 -67 -19 -89 -4 -21 -8 -41 -10 -45 -2 -3 -7 -23 -10 -43
-3 -21 -10 -57 -15 -80 -6 -24 -15 -72 -20 -108 -6 -36 -13 -76 -16 -90 -38
-190 -41 -449 -7 -605 41 -189 110 -318 205 -384 126 -86 329 -98 465 -26 62
32 74 43 106 89 40 60 34 67 -31 40 -106 -43 -224 -22 -303 54 -66 62 -132
209 -148 327 -15 120 -4 379 24 511 8 42 17 116 19 164 3 76 9 98 38 157 45
90 87 231 79 265 -1 3 5 46 13 94 11 69 19 93 40 113 24 24 31 26 113 24 48
-1 101 -3 117 -4 50 -3 59 0 88 27 l28 26 -6 -35 c-8 -43 12 -54 61 -31 25 12
34 23 34 40 0 13 -3 24 -7 25 -53 5 -83 20 -83 40 0 14 -7 19 -27 20 -42 1
-74 8 -117 25 -22 8 -57 16 -78 16 -39 0 -65 19 -53 39 5 7 21 9 44 5 20 -3
68 -9 106 -12 101 -8 127 -19 184 -76 49 -51 52 -52 113 -54 35 -1 66 -2 71
-3 12 -2 8 -41 -5 -42 -7 -1 -31 0 -53 0 -42 2 -40 -4 11 -35 36 -22 -23 -23
-66 -2 -31 16 -44 18 -53 9 -25 -25 17 -40 132 -47 53 -3 80 -10 99 -24 29
-24 187 -74 202 -65 5 3 10 18 10 33 0 44 -141 174 -236 218 -129 60 -333 121
-474 141 -49 7 -70 20 -70 43 0 11 16 59 36 107 20 49 50 135 66 193 16 58 43
137 60 175 28 62 94 246 103 285 15 64 99 353 125 430 18 52 52 160 75 240 24
80 54 178 66 218 20 65 21 79 11 118 -15 57 -15 93 1 124 33 64 48 154 33 199
-10 29 -27 41 -115 87 -92 49 -126 59 -156 49z m-58 -357 c7 -9 -3 -57 -29
-148 -36 -127 -143 -467 -173 -555 -8 -22 -37 -119 -65 -215 -28 -96 -88 -289
-132 -428 -62 -195 -78 -258 -71 -274 8 -17 22 17 80 188 39 115 112 327 161
472 50 144 91 265 91 267 2 38 15 75 22 64 4 -7 5 -17 2 -22 -3 -5 -12 -34
-19 -65 -20 -81 -19 -77 -49 -187 -68 -254 -154 -543 -232 -778 -44 -132 -59
-167 -72 -164 -9 2 -14 10 -12 18 12 45 20 99 20 134 0 40 0 40 -14 15 -13
-23 -35 -90 -49 -152 -9 -39 -51 -47 -171 -33 -16 2 -68 7 -115 10 -47 3 -114
8 -150 11 -36 3 -159 7 -275 9 -115 2 -221 7 -235 10 -14 3 -71 6 -127 6 -116
1 -121 5 -72 60 17 19 100 120 183 224 100 125 225 263 363 404 117 117 235
242 265 277 29 35 115 123 192 196 175 168 343 336 521 522 77 80 143 146 146
146 4 0 11 -6 16 -12z m-1195 -1025 c-27 -38 -72 -79 -72 -66 0 13 81 105 87
99 3 -3 -4 -17 -15 -33z m-434 -500 c-30 -45 -103 -124 -172 -184 l-50 -44 20
34 c20 37 215 243 223 236 2 -3 -7 -22 -21 -42z m197 -327 c466 -17 630 -27
750 -47 80 -13 96 -19 90 -30 -9 -13 -52 -11 -105 5 -25 7 -56 12 -70 11 -14
-1 -34 2 -45 8 -12 6 -105 12 -225 13 -200 2 -204 2 -180 -16 30 -23 57 -28
90 -19 36 10 90 10 90 1 0 -5 -6 -10 -12 -11 -35 -5 -298 -9 -330 -4 -43 6
-52 22 -10 18 15 -1 36 1 47 6 11 4 -54 8 -145 8 -170 1 -240 12 -240 36 0 22
28 32 79 30 25 -2 123 -6 216 -9z m-769 -34 c-13 -21 -179 -39 -320 -33 -50 1
-42 10 15 16 84 8 154 17 156 19 1 1 36 3 79 5 48 1 74 -1 70 -7z m1368 -31
c11 -1 17 -3 14 -6 -11 -12 -64 -16 -98 -9 l-35 8 35 6 c19 3 42 5 50 4 8 -1
24 -3 34 -3z m-1370 -230 c10 -16 -17 -76 -59 -128 -23 -28 -55 -72 -71 -97
-29 -45 -44 -57 -44 -34 0 17 120 252 134 260 15 10 34 10 40 -1z m-129 -58
c-2 -10 -4 -22 -4 -28 -1 -5 -10 -21 -21 -35 l-20 -25 9 31 c15 52 44 98 36
57z m1737 -59 c-4 -44 -61 -273 -97 -384 -37 -117 -65 -235 -65 -274 0 -37
-17 -57 -30 -36 -5 7 -7 23 -5 34 40 234 39 230 64 313 20 67 38 146 46 207 6
39 45 158 58 174 18 23 32 6 29 -34z m-1873 -176 c-17 -31 -62 -88 -71 -88
-16 0 58 108 75 109 4 1 2 -9 -4 -21z m68 -23 c-10 -25 -249 -355 -258 -355
-32 0 -6 43 108 178 29 34 70 92 90 127 21 36 44 65 52 65 7 0 11 -6 8 -15z
m-383 -567 c-11 -38 -42 -94 -58 -107 -23 -19 -20 -10 16 64 31 63 57 88 42
43z m1998 -73 c0 -24 -5 -51 -10 -61 -6 -12 -10 7 -11 62 -1 61 2 75 10 61 6
-10 11 -38 11 -62z m-2349 -490 c-43 -85 -79 -152 -82 -150 -14 15 129 305
151 305 4 0 -27 -70 -69 -155z"/>
<path d="M5970 18130 c0 -5 5 -10 11 -10 5 0 7 5 4 10 -3 6 -8 10 -11 10 -2 0
-4 -4 -4 -10z"/>
<path d="M15466 19898 c-17 -24 -22 -88 -6 -88 10 0 37 54 42 84 4 28 -18 31
-36 4z"/>
<path d="M6322 19538 c-45 -44 -49 -61 -8 -35 27 18 72 77 59 77 -5 0 -28 -19
-51 -42z"/>
<path d="M13356 19289 c-53 -42 -104 -163 -108 -258 -2 -57 28 -86 80 -76 46
9 122 51 150 83 61 70 87 170 57 216 -37 57 -129 75 -179 35z"/>
<path d="M14128 19268 c-8 -7 -34 -41 -57 -76 -63 -94 -84 -226 -40 -253 24
-14 188 66 254 125 41 36 47 46 47 82 0 23 -7 53 -17 67 -34 52 -148 85 -187
55z"/>
<path d="M16786 19174 c-18 -17 -21 -59 -7 -69 10 -6 23 14 41 59 11 31 -8 36
-34 10z"/>
<path d="M25646 18565 c-110 -39 -271 -185 -434 -392 -53 -67 -61 -70 -53 -25
16 88 -15 246 -58 298 -21 26 -53 44 -78 44 -39 0 -94 -22 -108 -43 -7 -12
-30 -112 -50 -222 -44 -239 -79 -395 -99 -434 -9 -16 -24 -31 -35 -34 -11 -3
-30 -21 -42 -41 -17 -29 -25 -35 -44 -30 -27 7 -117 -32 -153 -66 -12 -11 -40
-27 -61 -35 -43 -15 -111 -56 -111 -67 0 -4 21 2 47 13 l48 20 -25 -26 c-14
-15 -42 -36 -62 -47 -31 -18 -35 -24 -27 -40 5 -10 14 -18 18 -18 5 0 46 27
90 60 45 33 85 60 90 60 13 0 20 -25 12 -38 -13 -21 -175 -114 -208 -119 -39
-7 -45 -34 -12 -57 20 -13 26 -13 62 5 40 21 170 119 220 167 16 15 42 53 59
84 27 51 112 137 123 126 5 -4 -21 -148 -59 -339 -31 -150 -33 -235 -8 -307
24 -66 27 -69 52 -47 24 22 30 18 37 -27 2 -18 11 -43 18 -54 17 -26 67 -37
100 -22 25 11 26 16 45 128 33 192 121 427 228 605 118 197 328 437 509 581
134 107 163 116 284 84 59 -15 89 -2 89 38 0 21 -18 44 -82 105 -46 43 -105
89 -132 102 -57 29 -128 32 -190 10z m-133 -189 c-20 -34 -137 -172 -224 -263
-58 -61 -69 -69 -69 -49 0 40 91 145 235 274 62 55 71 61 58 38z m-25 -193
c-18 -28 -103 -100 -90 -78 17 30 34 48 66 73 35 27 40 28 24 5z"/>
<path d="M28133 18402 c-31 -5 -73 -50 -73 -79 0 -14 6 -48 14 -76 8 -29 13
-63 12 -77 -2 -14 -4 -33 -5 -42 -2 -29 -59 -85 -104 -103 -23 -9 -181 -64
-350 -122 -337 -115 -325 -113 -354 -45 -9 21 -10 39 -4 50 12 24 -2 55 -33
71 -33 18 -33 29 0 37 l26 7 -44 44 c-60 62 -291 173 -359 173 -29 0 -58 17
-100 57 -34 32 -40 34 -105 34 -85 0 -184 -29 -245 -72 -108 -77 -217 -216
-256 -325 -34 -93 -111 -354 -122 -414 -37 -184 -7 -372 77 -487 70 -95 173
-141 366 -162 174 -19 302 25 457 160 107 93 315 399 305 451 -6 35 19 85 51
101 15 8 63 19 107 26 144 21 431 147 564 248 58 44 72 43 66 -4 -16 -143 -22
-171 -61 -280 -31 -89 -29 -153 10 -234 29 -62 54 -80 74 -54 13 18 33 12 33
-10 0 -8 9 -20 19 -27 10 -8 21 -25 23 -38 3 -23 7 -25 48 -23 34 2 57 11 97
40 254 184 351 260 433 338 52 50 123 112 158 139 52 40 65 46 78 35 9 -8 13
-22 9 -38 -2 -14 -7 -44 -10 -66 -3 -22 -7 -53 -10 -70 -3 -16 -7 -57 -10 -90
-9 -95 -15 -147 -25 -190 -5 -22 -11 -60 -15 -85 -3 -25 -8 -58 -11 -75 -19
-111 -66 -419 -70 -460 -3 -27 -13 -72 -22 -100 -14 -42 -25 -55 -67 -82 -201
-127 -592 -403 -767 -540 -305 -240 -608 -533 -833 -804 -199 -239 -388 -528
-526 -804 -70 -139 -148 -311 -153 -338 -2 -7 -12 -43 -24 -82 -11 -38 -23
-81 -26 -95 -26 -135 -33 -190 -42 -340 -3 -52 -7 -106 -10 -120 -2 -14 -7
-63 -10 -110 -8 -105 6 -149 107 -350 110 -220 217 -346 360 -428 136 -77 329
-109 529 -88 102 11 134 23 196 72 33 26 81 57 108 70 l49 23 -26 12 c-34 15
-44 46 -23 68 12 11 35 16 84 16 47 1 75 6 94 19 37 24 40 38 16 77 l-20 33
-23 -26 c-13 -15 -25 -32 -27 -38 -4 -14 -35 -3 -42 16 -4 9 9 21 39 35 43 20
50 37 30 69 -3 5 4 17 15 27 12 10 42 57 66 105 61 116 115 178 158 178 25 0
39 9 70 45 38 46 42 77 11 89 -9 3 -12 0 -8 -10 3 -8 -2 -23 -11 -32 -9 -9
-23 -26 -30 -37 -11 -16 -17 -17 -29 -7 -17 15 -5 51 71 212 22 47 59 139 82
205 23 66 53 140 65 165 37 73 165 422 165 450 0 9 11 39 25 65 14 26 32 81
40 121 12 63 55 213 95 329 9 26 7 32 -12 47 l-23 17 28 10 c16 6 36 11 45 11
9 0 32 9 51 21 l33 20 -5 -71 c-5 -70 -16 -105 -18 -62 -1 12 -3 27 -4 32 -1
6 -3 15 -4 20 -2 18 -29 11 -45 -12 -9 -12 -16 -37 -16 -56 0 -28 5 -35 30
-43 30 -11 41 -41 20 -54 -5 -3 -10 1 -10 9 0 44 -62 1 -77 -54 -3 -14 -12
-35 -20 -46 -16 -25 -27 -97 -18 -124 15 -46 48 -26 59 34 7 39 47 156 53 156
7 0 -5 -56 -24 -118 -16 -48 -16 -53 -1 -69 15 -15 15 -17 -2 -32 -21 -17
-100 -228 -100 -265 0 -24 38 -52 61 -44 16 5 88 178 82 195 -3 7 -16 13 -29
13 -13 0 -24 3 -24 6 0 8 53 54 62 54 9 0 28 35 34 63 2 11 -3 32 -12 45 -17
25 -16 27 39 84 14 15 22 50 18 80 -1 12 36 113 58 157 30 58 26 135 -6 139
-37 5 -24 38 16 43 20 3 27 13 37 49 7 25 21 70 33 101 22 61 21 84 -4 127
-16 27 -16 29 10 68 51 74 61 125 42 201 -15 57 -14 61 24 85 17 11 26 25 25
40 -1 13 4 40 11 62 19 57 16 96 -9 123 l-22 24 22 6 c25 6 29 21 7 29 -8 4
-15 15 -15 26 0 15 5 18 19 13 24 -7 27 -2 37 55 9 57 10 126 2 167 -5 24 0
40 19 69 14 20 40 69 57 108 67 149 84 176 114 176 18 0 38 10 53 26 19 21 72
53 99 59 69 16 71 18 87 56 18 45 70 81 144 99 46 12 83 37 110 77 16 23 189
140 279 189 65 35 115 84 181 178 52 73 58 98 34 133 -15 21 -15 21 -122 -33
-60 -29 -187 -92 -283 -138 -96 -47 -218 -113 -270 -147 -208 -137 -420 -250
-396 -211 2 4 10 45 16 90 6 46 24 117 41 157 27 69 29 81 27 197 -1 96 2 130
14 153 9 17 21 73 28 125 7 52 13 102 15 110 1 8 6 35 10 60 4 25 9 54 11 65
3 11 7 35 10 54 3 18 8 43 10 55 12 63 25 148 31 203 l6 62 -42 37 c-22 21
-41 45 -41 54 0 23 -21 40 -57 46 -55 10 -102 25 -108 34 -8 13 -52 13 -60 -1
-4 -5 -72 -61 -151 -124 -180 -144 -275 -227 -389 -344 -83 -85 -190 -169
-201 -158 -2 2 0 15 5 28 5 13 12 47 15 74 4 28 18 88 31 135 27 93 51 225 59
310 l5 55 -65 63 c-84 80 -147 113 -201 104z m-1176 -320 c46 -29 90 -289 52
-312 -6 -4 -56 -8 -110 -7 -124 0 -153 14 -171 84 -7 27 -12 54 -11 61 0 6 1
21 2 32 2 29 75 105 124 129 43 21 92 27 114 13z m2008 -14 c-8 -43 -29 -70
-70 -90 -22 -12 -46 -29 -53 -39 -15 -22 -72 -26 -72 -6 0 31 31 57 70 57 29
0 45 7 69 30 16 17 33 39 36 50 9 27 25 25 20 -2z m-1859 -160 c4 -6 8 -29 10
-51 2 -22 5 -46 8 -53 6 -16 -20 -38 -38 -31 -10 4 -14 24 -15 68 0 34 2 66 5
70 7 12 21 11 30 -3z m-633 -59 c28 -59 116 -142 189 -177 60 -29 180 -64 257
-76 56 -8 58 -18 18 -98 -56 -113 -115 -196 -193 -273 -107 -106 -252 -183
-361 -193 -47 -4 -55 -2 -82 25 -16 17 -35 49 -41 73 -11 41 -14 155 -6 210 2
14 7 43 10 65 18 119 19 125 42 204 23 82 125 281 142 281 4 0 15 -19 25 -41z
m2549 -506 c0 -37 -7 -99 -15 -138 -9 -38 -19 -88 -23 -110 -4 -22 -9 -47 -11
-55 -3 -8 -6 -53 -8 -100 -2 -47 -7 -114 -11 -150 -4 -36 -8 -84 -9 -107 -1
-43 -26 -83 -52 -83 -16 0 -15 -3 -3 57 13 64 33 212 65 478 3 22 15 98 27
168 23 139 40 157 40 40z m733 -354 c4 -11 5 -21 3 -23 -1 -1 -21 -13 -43 -28
-344 -224 -557 -354 -585 -358 -58 -9 -54 28 7 60 26 14 91 58 143 99 61 48
156 107 265 164 94 49 174 94 180 98 14 14 23 11 30 -12z m-738 -296 c-3 -31
-27 -44 -27 -15 0 29 11 53 20 47 5 -3 8 -17 7 -32z m-277 -312 c-5 -11 -27
-30 -47 -42 -21 -13 -105 -78 -188 -144 -82 -66 -184 -145 -225 -176 -42 -30
-98 -75 -126 -100 -56 -49 -86 -74 -264 -220 -250 -204 -556 -500 -633 -614
-22 -33 -77 -103 -122 -155 -94 -110 -133 -161 -159 -210 -10 -19 -38 -60 -61
-90 -45 -59 -75 -111 -75 -132 0 -7 -13 -22 -29 -32 -16 -11 -48 -49 -72 -84
-24 -36 -54 -80 -67 -98 -12 -19 -35 -67 -52 -109 -16 -41 -56 -128 -89 -192
-32 -65 -62 -131 -65 -148 -11 -53 -16 -79 -21 -110 -2 -16 -7 -41 -10 -55 -5
-21 -13 -61 -30 -150 -2 -8 -6 -39 -10 -68 -10 -74 -22 -53 -28 48 -5 90 13
181 69 349 28 85 114 266 178 374 23 40 45 79 49 87 4 8 13 24 20 35 7 11 46
76 87 145 110 184 238 373 387 570 120 160 167 213 290 327 22 21 92 86 155
144 188 177 326 295 468 401 74 56 195 147 268 202 209 158 244 182 323 225
84 46 94 49 79 22z m199 -223 c-4 -29 -17 -77 -28 -107 -14 -34 -24 -85 -27
-140 -4 -73 -25 -240 -40 -315 -14 -71 -24 -138 -30 -186 -8 -78 -30 -154 -54
-181 l-19 -24 -1 26 c0 15 11 65 25 112 13 47 27 100 30 119 3 18 8 40 10 48
2 8 6 38 10 65 3 28 8 70 11 95 3 25 7 56 9 70 2 14 7 48 11 75 3 28 8 58 10
69 2 10 6 43 10 74 3 30 8 63 9 71 2 9 6 41 10 71 9 63 29 110 49 110 10 0 11
-12 5 -52z m-104 -65 c-3 -41 -9 -96 -14 -121 -4 -26 -7 -65 -7 -87 1 -22 -5
-56 -13 -75 -8 -19 -20 -64 -26 -100 -7 -36 -20 -99 -28 -140 -21 -100 -26
-126 -33 -185 -9 -88 -11 -99 -24 -143 -10 -32 -11 -45 -2 -54 18 -18 15 -35
-18 -80 -16 -22 -30 -47 -30 -54 0 -7 -6 -11 -12 -9 -19 7 -15 113 4 150 9 17
19 57 23 90 4 33 14 72 21 87 12 22 12 32 2 47 -10 17 -9 22 9 38 19 16 22 32
27 138 3 66 7 130 10 141 2 12 7 38 10 58 3 20 15 62 25 94 23 69 29 100 36
172 3 30 10 70 16 88 18 55 31 26 24 -55z m-276 41 c-56 -60 -348 -274 -374
-274 -3 0 -5 7 -5 15 0 12 381 285 398 285 3 0 -5 -12 -19 -26z m136 -81 c-11
-90 -15 -108 -40 -207 -14 -55 -28 -124 -30 -155 -3 -31 -10 -83 -15 -116 -5
-33 -12 -78 -16 -100 -3 -22 -15 -83 -25 -135 -11 -52 -28 -141 -39 -197 -10
-56 -23 -110 -28 -119 -7 -12 -6 -24 2 -36 9 -15 7 -26 -11 -58 -13 -21 -23
-45 -23 -53 0 -42 -88 -340 -149 -504 -38 -103 -115 -312 -169 -463 -55 -152
-116 -307 -135 -345 -37 -75 -95 -184 -107 -200 -5 -5 -34 -62 -65 -125 -32
-63 -79 -146 -105 -185 -107 -158 -310 -329 -493 -413 -107 -50 -238 -67 -313
-41 -101 35 -136 76 -193 225 -22 56 -47 99 -81 138 -52 60 -60 85 -35 106 12
10 14 25 9 69 -10 86 -11 299 -2 361 5 30 22 81 38 115 16 33 31 83 34 110 3
28 16 76 31 108 14 32 34 90 45 130 20 72 62 143 157 265 29 38 40 59 33 66
-18 18 -11 32 23 48 26 13 43 37 91 134 72 144 119 215 201 305 34 37 72 89
84 115 13 27 54 78 95 118 41 40 81 91 94 118 16 34 33 53 59 67 21 10 83 65
138 120 55 56 116 111 136 121 22 12 39 29 43 45 4 14 11 25 16 25 5 0 35 26
67 59 35 35 85 72 128 94 44 22 98 62 143 106 40 38 120 102 178 141 57 39
116 87 131 107 44 58 71 83 88 83 13 0 15 -9 10 -47z m-574 -267 c-7 -8 -44
-33 -83 -57 -91 -54 -224 -179 -215 -202 4 -12 18 -17 42 -17 22 0 34 -4 30
-10 -3 -5 -17 -10 -30 -10 -22 0 -85 -52 -85 -70 0 -5 -8 -16 -17 -26 -16 -15
-18 -15 -38 10 l-21 26 -49 -46 c-28 -25 -89 -83 -136 -130 -48 -46 -90 -84
-95 -84 -16 0 428 444 496 495 83 63 204 144 209 139 2 -2 -2 -10 -8 -18z
m609 -746 c-6 -34 -5 -51 6 -68 15 -23 16 -23 -26 -35 -8 -2 -25 0 -37 4 -20
7 -26 3 -42 -29 -11 -21 -27 -44 -35 -52 -15 -12 -16 -8 -10 41 8 64 8 70 0
89 -5 12 1 15 29 14 56 -3 71 5 95 47 12 22 23 39 25 37 2 -2 -1 -23 -5 -48z
m-1564 -223 c-14 -23 -48 -66 -75 -95 -26 -28 -56 -62 -65 -75 -31 -44 14 55
50 109 75 113 153 166 90 61z m-246 -336 c-11 -23 -49 -88 -84 -144 -76 -124
-76 -124 -82 -217 -7 -102 -69 -237 -93 -201 -5 8 -7 26 -5 40 12 64 73 258
101 321 37 81 167 259 180 246 2 -2 -5 -23 -17 -45z m-399 -932 c2 -19 -1 -41
-6 -49 -13 -21 -24 14 -24 80 0 53 0 54 14 29 8 -14 15 -42 16 -60z m-41 -249
c3 -53 2 -57 -21 -63 -20 -5 -21 -3 -16 48 8 88 32 98 37 15z m1180 -505 c11
-14 7 -19 -12 -16 -4 0 -26 -25 -49 -57 -65 -88 -156 -148 -251 -166 -54 -10
-47 0 18 29 42 19 81 50 154 125 54 55 105 100 113 100 8 0 20 -7 27 -15z"/>
<path d="M23462 18370 c-134 -27 -174 -49 -276 -154 -200 -206 -309 -376 -355
-558 -70 -272 -33 -446 129 -608 184 -183 449 -229 755 -130 33 10 89 24 125
30 35 7 85 23 110 38 179 102 305 184 424 276 92 70 120 97 130 121 9 24 -6
17 -107 -49 -102 -66 -132 -76 -140 -47 -3 13 -13 21 -25 21 -32 0 -38 21 -11
42 68 54 67 51 39 58 -17 4 -27 14 -30 32 l-5 27 -40 -25 c-70 -44 -294 -154
-404 -199 -179 -74 -320 -105 -494 -109 -90 -3 -130 12 -158 58 -27 44 -24 63
12 82 18 9 81 47 142 85 61 38 115 69 121 69 5 0 31 22 57 49 25 27 80 71 121
99 91 62 350 318 380 375 72 141 -13 268 -268 400 -82 42 -99 43 -232 17z
m258 -230 c0 -33 -44 -103 -96 -152 -92 -87 -144 -137 -171 -159 -63 -53 -47
-55 47 -5 19 10 31 14 25 9 -18 -17 -133 -103 -138 -103 -3 0 -3 9 0 19 4 16
1 19 -15 14 -27 -7 -51 -34 -61 -69 -5 -22 -19 -33 -57 -49 -27 -11 -71 -33
-98 -48 -26 -16 -50 -27 -52 -24 -9 8 34 121 72 193 66 121 106 177 178 250
81 80 137 115 251 155 73 25 81 26 98 12 9 -9 17 -28 17 -43z m95 -50 c3 -10
-1 -29 -9 -42 -8 -13 -23 -40 -35 -62 l-20 -39 -7 28 c-8 31 9 90 34 118 20
22 29 22 37 -3z"/>
<path d="M13538 18274 c-175 -40 -298 -152 -541 -495 -32 -44 -62 -69 -160
-129 -67 -41 -236 -151 -376 -244 -330 -219 -403 -252 -476 -221 -86 35 -127
259 -77 421 35 113 13 221 -49 243 -33 11 -91 6 -133 -13 -55 -25 -80 -30 -73
-15 83 192 81 257 -13 349 -70 69 -184 105 -311 99 -116 -6 -187 -46 -319
-178 -172 -172 -304 -348 -389 -518 -39 -77 -89 -198 -96 -233 -2 -8 -8 -27
-14 -42 -6 -15 -9 -65 -7 -110 6 -141 46 -201 173 -260 73 -33 122 -43 218
-42 187 3 358 92 581 306 45 43 88 78 96 78 8 0 21 -15 30 -32 29 -61 157
-224 197 -252 106 -74 250 -67 461 22 102 42 166 83 239 152 56 53 61 67 17
51 -30 -12 -31 -10 -12 28 20 37 80 90 146 129 30 17 69 43 85 57 27 23 23 22
-40 -9 -72 -36 -254 -101 -261 -93 -5 5 140 102 236 157 41 24 101 61 132 83
47 32 60 37 72 28 19 -16 10 -40 -23 -68 -31 -26 -22 -41 15 -24 l27 12 -8
-73 c-21 -194 0 -296 85 -416 121 -172 310 -264 540 -262 105 0 139 5 233 34
46 14 122 35 171 46 96 23 169 62 386 206 129 85 280 207 280 225 0 12 -26 -1
-100 -51 -95 -64 -93 -64 -150 -35 -27 14 -50 30 -50 35 0 5 16 21 35 36 19
14 35 31 35 36 0 5 -4 7 -9 4 -12 -8 -44 31 -36 43 10 17 -10 13 -36 -8 -56
-44 -399 -204 -535 -250 -98 -32 -213 -52 -335 -58 -131 -6 -165 4 -199 60
-30 49 -25 62 38 97 31 18 82 50 112 70 30 20 75 47 100 60 25 13 65 44 90 69
25 25 77 67 115 93 85 57 366 333 389 382 26 54 23 117 -9 181 -20 43 -44 69
-102 114 -151 118 -267 154 -395 125z m266 -241 c-10 -55 -47 -103 -158 -208
-64 -61 -116 -113 -116 -117 0 -4 20 5 46 19 25 14 48 22 52 18 4 -3 0 -10 -8
-15 -8 -4 -46 -31 -85 -59 -60 -44 -74 -50 -102 -45 -18 3 -33 2 -34 -2 -4
-41 -6 -55 -11 -59 -14 -14 -203 -103 -209 -99 -12 7 11 75 60 174 118 237
253 367 445 432 l81 27 22 -20 c14 -14 20 -29 17 -46z m-2347 -95 c-1 -137 19
-199 70 -219 29 -11 29 -37 0 -69 -21 -24 -102 -119 -231 -275 -136 -164 -270
-235 -466 -251 -68 -5 -90 2 -90 27 0 29 66 193 122 299 121 233 357 494 513
566 84 39 84 39 82 -78z m2441 46 c2 -12 -11 -45 -27 -73 -17 -29 -31 -56 -31
-62 0 -6 -4 -7 -10 -4 -18 11 -11 86 12 126 24 43 51 49 56 13z m347 -720
c-29 -23 -79 -39 -69 -22 10 15 62 45 81 45 12 0 9 -6 -12 -23z"/>
<path d="M18195 18274 c-192 -34 -238 -64 -415 -268 -131 -151 -194 -253 -240
-389 -36 -106 -45 -165 -45 -302 0 -164 41 -263 158 -377 114 -111 244 -166
417 -175 120 -7 199 4 340 47 52 15 118 33 146 39 33 6 98 38 180 87 117 69
261 161 274 174 3 3 21 17 40 31 53 40 146 129 135 129 -6 0 -50 -25 -100 -55
-49 -30 -95 -55 -101 -55 -16 0 -94 51 -94 61 0 4 17 21 38 39 35 29 36 31 15
36 -12 4 -25 15 -28 25 -4 10 -10 19 -15 19 -4 0 -39 -19 -76 -42 -38 -23
-103 -57 -144 -75 -41 -19 -94 -43 -117 -54 -167 -75 -299 -118 -418 -135 -27
-3 -59 -8 -70 -10 -43 -8 -181 -5 -207 5 -29 11 -78 75 -78 103 0 10 16 26 40
38 22 11 78 45 124 75 47 31 100 62 118 70 18 7 49 30 68 50 19 21 78 69 130
108 116 86 337 305 375 371 50 85 36 174 -38 249 -56 57 -107 92 -222 152 -80
43 -96 45 -190 29z m214 -213 c24 -43 -6 -89 -158 -245 -106 -108 -112 -116
-68 -91 26 15 50 25 53 22 5 -5 -97 -87 -150 -121 -29 -18 -29 -18 -23 3 11
45 -41 9 -57 -39 -6 -18 -18 -36 -26 -40 -24 -12 -174 -85 -182 -88 -22 -10
-2 65 41 154 104 217 224 353 371 421 131 61 177 67 199 24z m99 -79 c2 -12
-12 -49 -31 -83 -38 -67 -51 -62 -41 15 10 79 63 130 72 68z m341 -720 c-13
-10 -33 -22 -43 -26 -17 -6 -17 -5 -5 11 20 26 31 33 53 33 16 0 16 -2 -5 -18z"/>
<path d="M8283 18069 c-7 -7 -13 -36 -13 -65 0 -54 -6 -89 -40 -244 -12 -52
-23 -106 -26 -120 -3 -14 -11 -50 -19 -80 -16 -60 -79 -327 -89 -375 -9 -44
-15 -72 -31 -160 -13 -72 -18 -103 -30 -200 -5 -37 -6 -164 -2 -185 14 -71 44
-109 62 -80 12 19 24 10 44 -35 12 -27 26 -45 37 -45 9 0 65 48 124 108 94 94
118 125 195 257 141 240 170 286 229 355 31 36 88 104 128 153 40 48 77 86 82
84 13 -4 15 -58 5 -107 -4 -19 -10 -55 -13 -80 -17 -143 -39 -257 -56 -290
l-20 -38 78 -106 c79 -108 108 -131 124 -102 13 23 33 20 46 -8 12 -28 48 -55
81 -61 39 -7 229 132 366 270 107 107 253 235 269 235 28 0 34 -28 40 -185 10
-230 23 -325 63 -465 37 -130 83 -201 170 -261 72 -50 208 -74 263 -46 30 15
82 112 78 147 -3 23 -7 25 -73 30 -82 6 -126 28 -149 76 -17 37 -52 168 -61
230 -4 21 -8 46 -10 54 -9 31 -18 147 -17 200 6 232 4 280 -8 309 -7 17 -16
31 -21 31 -5 0 -38 28 -74 63 -68 64 -149 105 -211 106 -55 1 -318 -193 -523
-386 -75 -72 -84 -70 -76 14 8 81 10 91 29 157 32 108 39 231 24 376 -11 107
-23 120 -103 113 -78 -8 -116 2 -168 43 -61 48 -80 42 -171 -49 -120 -122
-228 -267 -366 -497 -76 -126 -90 -144 -103 -131 -11 11 3 69 58 236 18 55 44
154 59 220 23 109 31 154 51 295 18 123 -3 188 -73 222 -55 26 -141 35 -159
17z"/>
<path d="M20155 18002 c30 -27 157 -44 170 -22 3 6 -4 14 -17 19 -32 12 -166
14 -153 3z"/>
<path d="M19504 17733 c-16 -16 -43 -46 -59 -67 -49 -67 -87 -96 -116 -90 -37
7 -101 -33 -194 -121 -44 -42 -92 -83 -107 -91 -29 -15 -38 -44 -14 -44 8 0
51 27 96 61 74 55 84 59 98 45 13 -13 13 -17 2 -31 -24 -29 -152 -108 -194
-120 -44 -13 -55 -39 -25 -58 23 -14 90 21 159 83 30 28 58 50 62 50 19 0 79
66 114 125 40 69 93 122 188 189 56 39 67 61 44 84 -17 17 -21 16 -54 -15z"/>
<path d="M9947 15713 c-15 -7 -31 -22 -37 -33 -13 -24 -13 -76 1 -101 15 -29
123 -95 287 -177 l143 -72 -53 -1 c-29 -1 -71 -3 -93 -4 -156 -13 -469 -6
-495 10 -4 2 -22 7 -41 10 -19 3 -72 22 -119 42 -112 46 -375 125 -423 125
-45 1 -73 -22 -81 -67 -5 -24 1 -35 37 -70 23 -22 77 -58 119 -80 42 -22 72
-42 66 -46 -5 -4 -51 -7 -102 -8 -210 -5 -292 -18 -355 -59 -30 -19 -43 -35
-47 -59 -14 -72 27 -118 116 -132 99 -16 175 -5 369 53 101 31 188 56 193 56
20 0 -58 -97 -141 -174 -55 -53 -93 -117 -84 -145 27 -86 74 -97 175 -43 115
63 204 162 293 328 28 52 63 108 78 124 47 50 168 74 362 74 95 0 234 -10 242
-17 4 -5 -83 -47 -161 -78 -78 -32 -176 -120 -176 -159 0 -48 24 -62 99 -59
131 5 217 41 550 231 59 34 59 33 -14 -67 -71 -95 -86 -129 -90 -191 -3 -40 1
-56 14 -68 17 -15 23 -14 76 14 32 17 74 48 92 68 36 39 79 120 86 162 25 137
22 134 179 126 158 -8 306 -16 388 -21 36 -2 71 -4 79 -4 7 -1 -59 -37 -148
-82 -88 -44 -169 -91 -179 -104 -21 -26 -19 -77 3 -95 44 -37 203 3 509 126
60 24 111 42 113 40 2 -2 -7 -31 -21 -64 -54 -128 -54 -212 1 -233 85 -32 142
42 158 206 13 131 31 139 243 102 86 -15 166 -29 177 -31 55 -9 234 -47 261
-55 38 -11 114 -53 114 -63 0 -5 -8 -8 -17 -9 -27 -1 -62 -8 -128 -25 -33 -9
-64 -17 -70 -18 -25 -5 -132 -59 -162 -82 -43 -33 -56 -59 -49 -99 8 -40 46
-59 102 -51 103 15 122 19 169 31 107 28 242 96 337 168 71 55 77 56 127 42
197 -56 409 -117 421 -122 8 -3 -41 -24 -110 -48 -199 -67 -221 -80 -235 -136
-11 -44 19 -68 105 -82 84 -14 278 -2 313 20 4 2 7 -3 7 -11 0 -9 -3 -16 -8
-16 -13 0 -91 -124 -96 -153 -4 -22 1 -35 20 -54 21 -21 33 -24 77 -22 76 3
145 26 199 65 73 54 107 117 157 294 10 35 43 49 94 40 23 -5 60 -10 82 -13
22 -3 87 -13 145 -22 113 -17 129 -20 205 -30 28 -4 51 -8 53 -10 5 -4 -157
-80 -226 -106 -102 -38 -134 -85 -95 -137 18 -24 27 -27 78 -27 31 0 80 8 108
17 29 9 66 17 84 17 36 1 36 0 3 -92 -25 -69 -17 -91 38 -107 67 -18 116 -8
160 33 30 28 62 89 62 119 0 13 6 35 14 49 7 15 23 55 35 91 35 105 63 131
157 144 27 3 57 8 66 9 15 3 77 10 183 20 22 2 80 7 130 10 l89 7 -56 -58
c-117 -122 -148 -168 -148 -219 0 -34 37 -65 76 -65 32 0 153 57 181 85 8 8
19 18 26 22 33 21 77 88 102 154 49 130 90 166 247 213 67 20 92 33 113 57 49
60 11 76 -73 31 -32 -16 -74 -35 -94 -41 -120 -39 -263 0 -387 103 -88 74
-311 176 -383 176 -64 0 -110 -62 -93 -127 20 -81 227 -193 357 -193 27 0 65
-7 86 -16 48 -20 39 -25 -119 -65 -171 -43 -343 -47 -434 -11 -68 28 -137 68
-185 108 -87 72 -166 123 -254 165 -111 52 -140 56 -171 25 -14 -14 -25 -34
-25 -46 0 -40 40 -99 115 -166 41 -38 75 -72 75 -76 0 -11 -162 0 -239 16
-134 28 -258 103 -341 204 -83 102 -122 142 -189 191 -84 62 -224 139 -272
150 -49 11 -94 -14 -104 -58 -8 -36 0 -49 125 -201 98 -120 106 -132 88 -125
-12 4 -29 6 -125 20 -113 17 -238 51 -320 90 -114 53 -197 133 -261 250 -79
143 -187 262 -279 306 -100 49 -187 -11 -160 -111 11 -42 56 -100 158 -201 72
-72 99 -106 99 -126 0 -10 -344 47 -435 73 -97 27 -173 67 -288 153 -100 75
-341 225 -481 300 -70 37 -114 40 -144 9 -68 -74 -27 -137 180 -285 60 -42
106 -79 103 -81 -7 -7 -405 -4 -457 3 -87 12 -144 37 -228 100 -121 92 -247
158 -469 248 -220 88 -266 101 -304 80z m317 -154 c114 -39 349 -149 361 -170
15 -23 -139 -13 -242 17 -145 42 -332 143 -402 218 l-23 24 92 -24 c51 -13
147 -42 214 -65z m1006 -7 c96 -31 207 -100 355 -220 l80 -65 -40 7 c-143 27
-292 111 -435 245 -71 67 -68 69 40 33z m1113 -76 c90 -59 153 -132 231 -271
16 -27 38 -65 49 -84 l21 -34 -63 34 c-95 52 -212 149 -290 241 -70 81 -83
112 -59 136 21 21 57 13 111 -22z m-3047 -79 c49 -18 164 -75 164 -83 0 -8
-131 6 -195 22 -62 15 -145 58 -145 74 0 14 127 4 176 -13z m4042 -253 c34
-19 97 -62 140 -94 93 -71 237 -214 228 -228 -7 -12 -65 -6 -131 15 -126 39
-297 181 -375 311 -22 38 -40 71 -40 75 0 9 99 -35 178 -79z m-2873 37 c-60
-59 -251 -141 -327 -141 l-32 0 35 26 c47 37 143 80 241 108 102 31 107 31 83
7z m-1190 -13 c56 2 -177 -94 -274 -112 -105 -20 -203 -9 -221 24 -16 30 4 58
53 71 88 24 136 28 277 22 80 -3 154 -5 165 -5z m2315 -47 c-65 -51 -213 -106
-335 -126 l-40 -6 49 35 c60 44 134 72 246 96 108 23 110 23 80 1z m-2064
-105 c-48 -104 -140 -181 -245 -205 -23 -5 -43 -5 -46 -1 -10 16 108 131 209
204 56 40 102 69 104 65 2 -4 -8 -33 -22 -63z m5489 0 c115 -50 255 -138 255
-160 0 -12 -145 -6 -198 8 -101 27 -221 104 -222 143 0 29 37 54 69 46 14 -3
57 -20 96 -37z m-3189 -38 c-8 -67 -24 -101 -57 -118 -42 -23 -58 33 -27 95
14 27 69 85 81 85 6 0 7 -26 3 -62z m2460 -102 c79 -36 253 -161 241 -172 -7
-7 -111 18 -162 39 -67 27 -165 97 -198 141 -15 19 -27 37 -27 39 0 8 89 -21
146 -47z m-1626 -25 c0 -13 -125 -89 -165 -100 -44 -12 -124 -15 -149 -5 -13
5 -9 13 21 40 33 30 92 56 148 66 39 7 145 6 145 -1z m950 -150 c34 -3 -110
-90 -175 -105 -61 -15 -72 -17 -159 -23 -79 -5 -91 -4 -103 12 -7 11 -13 26
-13 36 0 32 118 64 280 76 47 3 86 6 87 7 1 1 41 -1 83 -3z m1824 -98 c-11
-43 -59 -115 -96 -144 -95 -73 -159 -89 -166 -41 -8 52 89 144 196 188 72 30
74 30 66 -3z m-1685 -50 c-31 -94 -95 -163 -178 -191 -51 -18 -66 -15 -100 20
-35 36 -36 50 -3 55 12 1 52 23 90 47 139 90 197 123 200 115 2 -5 -2 -26 -9
-46z m671 -58 c-35 -37 -136 -83 -197 -90 -63 -8 -67 3 -15 37 48 33 89 48
165 63 34 7 64 13 66 14 3 0 -6 -10 -19 -24z m187 -57 c4 -7 9 -29 9 -48 1
-39 -47 -115 -91 -144 -52 -34 -131 -26 -119 12 22 66 59 111 138 170 33 25
51 28 63 10z"/>
<path d="M16520 15132 c-6 -2 -10 -131 -10 -358 l0 -354 35 0 c26 0 35 4 36
18 1 9 1 65 1 125 l1 107 102 0 c157 0 236 34 281 121 22 44 30 146 14 194
-19 58 -87 120 -146 134 -45 11 -290 21 -314 13z m310 -95 c41 -18 64 -42 75
-77 30 -95 -15 -185 -104 -207 -20 -5 -76 -9 -126 -9 l-90 1 -1 152 c-2 133 0
152 15 155 40 9 199 -2 231 -15z"/>
<path d="M18249 15117 c-133 -56 -214 -194 -208 -354 6 -160 76 -272 206 -329
91 -41 196 -31 286 26 93 59 148 167 153 302 6 162 -59 283 -190 350 -64 33
-175 35 -247 5z m196 -67 c166 -65 222 -334 99 -478 -64 -75 -179 -105 -265
-69 -68 28 -134 110 -153 192 -12 49 -8 147 8 193 48 134 190 209 311 162z"/>
<path d="M18899 15132 c-23 -3 -27 -8 -27 -40 l-1 -38 97 1 c53 1 102 0 108
-3 9 -2 12 -83 12 -290 0 -158 1 -299 1 -314 1 -25 5 -28 36 -28 l35 0 0 318
0 318 105 -1 c58 -1 105 1 106 4 1 3 2 21 4 39 l3 32 -112 1 c-61 0 -163 1
-226 2 -63 1 -127 1 -141 -1z"/>
<path d="M19797 15126 c-96 -35 -163 -106 -204 -216 -31 -83 -27 -220 9 -300
60 -133 168 -203 304 -199 235 8 379 273 284 523 -28 73 -115 164 -180 187
-57 20 -164 23 -213 5z m181 -77 c64 -24 128 -100 153 -181 14 -45 13 -151 -3
-196 -55 -160 -198 -226 -341 -158 -101 49 -163 210 -131 341 38 158 184 246
322 194z"/>
<path d="M20688 15124 c-129 -45 -216 -186 -216 -348 0 -123 30 -204 101 -277
55 -57 116 -82 211 -85 89 -3 144 13 219 65 l47 32 0 144 0 145 -132 0 -133 0
-1 -35 c-2 -39 -9 -37 134 -36 l63 0 -3 -92 -3 -92 -59 -30 c-104 -51 -214
-35 -289 42 -112 114 -103 341 16 452 36 33 121 60 171 55 45 -5 146 -50 146
-65 0 -19 27 -8 48 20 l21 29 -32 25 c-61 46 -98 59 -181 63 -58 3 -95 -1
-128 -12z"/>
<path d="M21357 15132 c-16 -3 -17 -35 -17 -358 l0 -354 35 0 c34 0 35 1 36
38 0 20 1 82 2 137 l2 100 75 2 c41 1 82 -1 91 -3 15 -4 49 -48 84 -106 5 -9
32 -51 60 -93 l49 -75 47 0 47 0 -94 140 c-52 77 -94 142 -94 145 0 2 19 13
43 24 56 26 79 48 100 96 20 46 24 92 13 154 -11 58 -74 122 -136 140 -41 11
-302 21 -343 13z m347 -102 c46 -28 65 -65 62 -121 -6 -102 -63 -136 -235
-138 l-117 -2 -1 138 c-1 76 0 140 2 144 2 3 60 4 129 3 109 -1 129 -4 160
-24z"/>
<path d="M22341 15118 c-19 -49 -214 -535 -226 -563 -7 -16 -15 -37 -18 -45
-3 -8 -12 -32 -21 -52 l-16 -38 39 0 39 0 38 94 38 94 168 0 c116 0 170 -3
175 -11 5 -7 22 -48 40 -92 l31 -80 41 -3 c23 -2 41 -2 41 0 0 5 -66 170 -85
213 -7 17 -55 136 -107 265 l-94 235 -37 3 c-31 3 -38 -1 -46 -20z m123 -273
l63 -160 -74 -3 c-41 -2 -104 -2 -142 0 l-67 3 70 178 c53 135 72 174 78 160
5 -10 37 -90 72 -178z"/>
<path d="M22993 15132 l-23 -3 0 -355 0 -355 37 3 38 3 -1 123 -1 122 101 1
c121 1 135 3 189 30 77 40 108 93 114 194 4 59 1 77 -19 115 -32 62 -94 107
-160 115 -59 7 -241 12 -275 7z m289 -91 c126 -42 125 -228 -2 -283 -26 -11
-193 -20 -221 -12 -13 3 -15 26 -14 152 1 81 3 150 3 153 3 10 198 2 234 -10z"/>
<path d="M17250 14774 l0 -355 37 3 37 3 -1 158 0 157 184 0 183 0 0 -161 0
-160 37 3 37 3 0 350 0 350 -37 3 -37 3 0 -159 0 -158 -182 0 -183 1 -2 145
c0 80 -2 151 -2 158 -1 7 -15 12 -36 12 l-35 0 0 -356z"/>
<path d="M23700 14776 l0 -356 35 0 c21 0 35 5 36 13 0 6 0 78 0 160 l1 147
184 0 184 0 0 -160 0 -160 35 0 c29 0 35 4 36 23 0 27 0 644 -1 670 0 13 -9
17 -35 17 l-35 0 0 -158 0 -157 -182 0 -183 0 -2 155 -1 155 -36 3 -36 3 0
-355z"/>
<path d="M24529 15118 c-1 -13 0 -632 1 -675 0 -19 6 -23 35 -23 l35 0 0 355
0 355 -35 0 c-21 0 -35 -5 -36 -12z"/>
<path d="M24910 14775 l0 -355 233 0 234 0 1 30 c0 16 -4 33 -10 36 -5 4 -94
7 -198 7 l-187 0 0 124 1 123 173 0 173 0 0 35 c0 21 -5 35 -12 36 -7 0 -85 1
-173 2 l-160 2 -1 121 0 122 189 -2 c203 -1 209 0 199 50 l-4 24 -229 0 -229
0 0 -355z"/>
<path d="M28421 14081 c-31 -29 -38 -54 -22 -79 6 -10 13 -5 29 20 20 33 39
88 29 88 -3 0 -19 -13 -36 -29z"/>
<path d="M28457 14011 c-14 -17 -41 -37 -61 -45 -39 -16 -48 -36 -16 -36 15 0
20 -7 20 -27 0 -38 -10 -50 -45 -59 -43 -10 -65 -33 -65 -68 0 -38 9 -53 37
-63 l22 -8 -29 -43 c-16 -24 -43 -87 -61 -140 -17 -53 -51 -137 -76 -186 -48
-96 -139 -236 -154 -236 -5 0 -18 6 -30 13 -17 10 -22 9 -35 -8 -14 -19 -13
-21 16 -33 19 -8 30 -19 30 -32 0 -11 -40 -67 -90 -124 -88 -103 -103 -130
-77 -138 34 -12 67 9 113 72 26 36 64 83 85 105 120 128 149 174 149 234 0 40
4 48 28 62 25 14 46 54 109 207 3 8 -4 12 -23 12 -28 0 -28 0 15 36 36 32 41
41 40 73 -3 44 6 61 32 61 20 0 21 1 23 41 1 15 12 38 25 50 12 13 44 82 70
152 48 127 48 128 27 142 -31 22 -51 18 -79 -14z"/>
<path d="M28208 13551 c-32 -62 -44 -116 -30 -125 28 -17 66 73 60 142 l-3 37
-27 -54z"/>
</g>
</svg>
